<?xml version="1.0" standalone="no"?>
<!DOCTYPE svg PUBLIC "-//W3C//DTD SVG 20010904//EN"
 "http://www.w3.org/TR/2001/REC-SVG-20010904/DTD/svg10.dtd">
<svg version="1.0" xmlns="http://www.w3.org/2000/svg"
 width="88.000000pt" height="88.000000pt" viewBox="0 0 88.000000 88.000000"
 preserveAspectRatio="xMidYMid meet">
<metadata>
Created by potrace 1.14, written by Peter Selinger 2001-2017
</metadata>
<g transform="translate(0.000000,88.000000) scale(0.100000,-0.100000)"
fill="#000000" stroke="none">
<path d="M426 862 c-3 -2 -22 -6 -41 -9 -40 -4 -105 -41 -105 -60 0 -7 -14
-28 -31 -48 -31 -35 -50 -112 -30 -124 13 -8 18 -113 6 -131 -27 -43 -3 -85
65 -114 48 -19 78 -55 75 -86 -2 -14 -4 -33 -4 -43 -1 -22 -59 -79 -72 -71 -5
3 -9 1 -9 -4 0 -12 -59 -34 -70 -27 -5 3 -12 0 -15 -6 -4 -5 -13 -8 -20 -5
-23 8 -54 -35 -75 -106 l-9 -28 344 0 343 0 -6 42 c-3 24 -12 53 -21 65 -14
19 -65 38 -123 47 -8 1 -27 9 -41 19 -15 9 -31 17 -37 17 -14 0 -30 44 -25 67
2 10 27 42 55 71 28 30 49 56 46 60 -3 3 0 15 7 26 8 12 13 30 11 41 -2 11 3
40 10 65 7 25 11 51 9 58 -3 7 4 12 15 12 11 0 25 7 32 15 7 8 19 15 26 15 13
0 34 38 34 60 0 5 -15 7 -32 5 -18 -3 -27 -3 -20 1 13 6 17 26 5 22 -22 -7
-100 83 -88 102 4 6 -5 10 -19 10 -14 0 -26 4 -26 10 0 19 -149 48 -164 32z"/>
</g>
</svg>
